<svg width="246" height="86" viewBox="0 0 246 86" fill="none" xmlns="http://www.w3.org/2000/svg">
<path d="M53.8252 80V70.7578H57.0625C58.1839 70.7578 59.0345 70.9736 59.6143 71.4053C60.194 71.8327 60.4839 72.4611 60.4839 73.2905C60.4839 73.7433 60.3675 74.1432 60.1348 74.4902C59.902 74.833 59.5783 75.0848 59.1636 75.2456C59.6375 75.3641 60.0099 75.6032 60.2808 75.9629C60.5558 76.3226 60.6934 76.7627 60.6934 77.2832C60.6934 78.1719 60.4098 78.8447 59.8428 79.3018C59.2757 79.7588 58.4674 79.9915 57.418 80H53.8252ZM55.7295 75.9756V78.4702H57.3608C57.8094 78.4702 58.1585 78.3644 58.4082 78.1528C58.6621 77.937 58.7891 77.6408 58.7891 77.2642C58.7891 76.4178 58.3511 75.9883 57.4751 75.9756H55.7295ZM55.7295 74.6299H57.1387C58.0993 74.613 58.5796 74.23 58.5796 73.481C58.5796 73.062 58.4569 72.7616 58.2114 72.5796C57.9702 72.3934 57.5872 72.3003 57.0625 72.3003H55.7295V74.6299ZM64.9938 78.6479C65.3323 78.6479 65.6074 78.5549 65.819 78.3687C66.0306 78.1825 66.1406 77.9349 66.149 77.626H67.8693C67.865 78.0915 67.7381 78.5189 67.4884 78.9082C67.2387 79.2933 66.896 79.5938 66.4601 79.8096C66.0284 80.0212 65.5502 80.127 65.0255 80.127C64.0437 80.127 63.2693 79.8159 62.7023 79.1938C62.1352 78.5675 61.8517 77.7043 61.8517 76.604V76.4834C61.8517 75.4255 62.1331 74.5812 62.6959 73.9507C63.2587 73.3201 64.031 73.0049 65.0128 73.0049C65.8719 73.0049 66.5595 73.2503 67.0758 73.7412C67.5963 74.2279 67.8608 74.8774 67.8693 75.6899H66.149C66.1406 75.3345 66.0306 75.0467 65.819 74.8267C65.6074 74.6024 65.3281 74.4902 64.9811 74.4902C64.5537 74.4902 64.2299 74.6468 64.0099 74.96C63.7941 75.2689 63.6862 75.7725 63.6862 76.4707V76.6611C63.6862 77.3678 63.7941 77.8757 64.0099 78.1846C64.2257 78.4935 64.5537 78.6479 64.9938 78.6479ZM72.2078 80.127C71.2006 80.127 70.3796 79.818 69.7449 79.2002C69.1143 78.5824 68.7991 77.7593 68.7991 76.731V76.5532C68.7991 75.8634 68.9324 75.2477 69.199 74.7061C69.4656 74.1602 69.8422 73.7412 70.3288 73.4492C70.8197 73.153 71.3783 73.0049 72.0046 73.0049C72.9441 73.0049 73.6825 73.3011 74.22 73.8936C74.7616 74.486 75.0325 75.326 75.0325 76.4136V77.1626H70.6589C70.7182 77.6112 70.8959 77.9709 71.1921 78.2417C71.4926 78.5125 71.8713 78.6479 72.3284 78.6479C73.0351 78.6479 73.5873 78.3919 73.9851 77.8799L74.8865 78.8892C74.6114 79.2785 74.239 79.5832 73.7693 79.8032C73.2996 80.019 72.779 80.127 72.2078 80.127ZM71.9983 74.4902C71.6343 74.4902 71.3381 74.613 71.1096 74.8584C70.8853 75.1038 70.7414 75.4551 70.678 75.9121H73.2297V75.7661C73.2213 75.3599 73.1112 75.0467 72.8996 74.8267C72.6881 74.6024 72.3876 74.4902 71.9983 74.4902ZM71.1287 71.3354C71.1287 71.5597 71.0461 71.7502 70.8811 71.9067C70.7161 72.0591 70.5045 72.1353 70.2463 72.1353C69.984 72.1353 69.7724 72.057 69.6116 71.9004C69.4508 71.7438 69.3704 71.5555 69.3704 71.3354C69.3704 71.1154 69.4508 70.9271 69.6116 70.7705C69.7724 70.6097 69.984 70.5293 70.2463 70.5293C70.5087 70.5293 70.7203 70.6097 70.8811 70.7705C71.0461 70.9271 71.1287 71.1154 71.1287 71.3354ZM72.4617 71.3354C72.4617 71.1069 72.5463 70.9165 72.7156 70.7642C72.8891 70.6076 73.0985 70.5293 73.344 70.5293C73.5937 70.5293 73.801 70.6076 73.9661 70.7642C74.1353 70.9207 74.22 71.1112 74.22 71.3354C74.22 71.5555 74.1396 71.7459 73.9788 71.9067C73.8179 72.0633 73.6064 72.1416 73.344 72.1416C73.0816 72.1416 72.8679 72.0633 72.7029 71.9067C72.5421 71.7459 72.4617 71.5555 72.4617 71.3354ZM79.6723 78.521C80.0871 78.0809 80.3685 77.645 80.5166 77.2134C80.6647 76.7817 80.7472 76.1702 80.7641 75.3789L80.8149 73.1318H85.8677V78.521H86.8579V82.063H85.0234V80H80.9546V82.063H79.082V78.521H79.6723ZM81.8369 78.521H84.0395V74.6489H82.6113L82.5986 75.4741C82.5605 76.7352 82.3066 77.7508 81.8369 78.521ZM93.8941 73.1318V80H92.0597V74.6172H90.441L90.3268 76.7373C90.2548 77.8672 90.0327 78.6903 89.6603 79.2065C89.2879 79.7228 88.7335 79.9873 87.9972 80H87.3751L87.3561 78.5083L87.5846 78.4893C87.9146 78.4639 88.1559 78.2692 88.3082 77.9053C88.4605 77.5413 88.5558 76.9214 88.5938 76.0454L88.7208 73.1318H93.8941ZM101.165 73.1318V80H99.3371V77.626H98.1755L96.8552 80H94.9953L96.4934 77.3149C96.0829 77.1245 95.7655 76.8664 95.5412 76.5405C95.3212 76.2147 95.2112 75.8444 95.2112 75.4297C95.2112 74.7653 95.4672 74.2215 95.9792 73.7983C96.4955 73.3709 97.1853 73.1488 98.0486 73.1318H101.165ZM98.0803 76.3438H99.3371V74.6045H98.1438C97.8179 74.6045 97.5534 74.6912 97.3503 74.8647C97.1472 75.034 97.0456 75.2414 97.0456 75.4868C97.0456 75.7323 97.143 75.9354 97.3376 76.0962C97.5323 76.257 97.7798 76.3395 98.0803 76.3438ZM109.068 78.6479C109.406 78.6479 109.681 78.5549 109.893 78.3687C110.105 78.1825 110.215 77.9349 110.223 77.626H111.943C111.939 78.0915 111.812 78.5189 111.562 78.9082C111.313 79.2933 110.97 79.5938 110.534 79.8096C110.103 80.0212 109.624 80.127 109.1 80.127C108.118 80.127 107.343 79.8159 106.776 79.1938C106.209 78.5675 105.926 77.7043 105.926 76.604V76.4834C105.926 75.4255 106.207 74.5812 106.77 73.9507C107.333 73.3201 108.105 73.0049 109.087 73.0049C109.946 73.0049 110.634 73.2503 111.15 73.7412C111.67 74.2279 111.935 74.8774 111.943 75.6899H110.223C110.215 75.3345 110.105 75.0467 109.893 74.8267C109.681 74.6024 109.402 74.4902 109.055 74.4902C108.628 74.4902 108.304 74.6468 108.084 74.96C107.868 75.2689 107.76 75.7725 107.76 76.4707V76.6611C107.76 77.3678 107.868 77.8757 108.084 78.1846C108.3 78.4935 108.628 78.6479 109.068 78.6479ZM118.821 74.6045H116.618V80H114.777V74.6045H112.613V73.1318H118.821V74.6045ZM126.06 76.6294C126.06 77.6873 125.819 78.5358 125.337 79.1748C124.858 79.8096 124.211 80.127 123.394 80.127C122.7 80.127 122.14 79.8857 121.712 79.4033V82.6406H119.878V73.1318H121.579L121.642 73.8047C122.087 73.2715 122.666 73.0049 123.382 73.0049C124.228 73.0049 124.886 73.318 125.356 73.9443C125.825 74.5706 126.06 75.4339 126.06 76.5342V76.6294ZM124.226 76.4961C124.226 75.8571 124.112 75.3641 123.883 75.0171C123.659 74.6701 123.331 74.4966 122.899 74.4966C122.324 74.4966 121.928 74.7166 121.712 75.1567V77.9688C121.936 78.4215 122.336 78.6479 122.912 78.6479C123.788 78.6479 124.226 77.9307 124.226 76.4961ZM127.047 76.5024C127.047 75.8211 127.178 75.2139 127.441 74.6807C127.703 74.1475 128.08 73.7349 128.571 73.4429C129.066 73.1509 129.639 73.0049 130.291 73.0049C131.218 73.0049 131.973 73.2884 132.557 73.8555C133.145 74.4225 133.473 75.1927 133.541 76.166L133.554 76.6357C133.554 77.6895 133.259 78.5358 132.671 79.1748C132.083 79.8096 131.294 80.127 130.304 80.127C129.313 80.127 128.522 79.8096 127.93 79.1748C127.341 78.54 127.047 77.6768 127.047 76.585V76.5024ZM128.882 76.6357C128.882 77.2874 129.004 77.7868 129.25 78.1338C129.495 78.4766 129.847 78.6479 130.304 78.6479C130.748 78.6479 131.095 78.4787 131.345 78.1401C131.594 77.7974 131.719 77.2515 131.719 76.5024C131.719 75.8634 131.594 75.3683 131.345 75.0171C131.095 74.6659 130.744 74.4902 130.291 74.4902C129.842 74.4902 129.495 74.6659 129.25 75.0171C129.004 75.3641 128.882 75.9036 128.882 76.6357ZM138.952 73.1318H140.787V80H138.952V75.7598L136.654 80H134.813V73.1318H136.654V77.3657L138.952 73.1318ZM140.031 70.3452C140.031 70.908 139.828 71.363 139.422 71.71C139.02 72.057 138.491 72.2305 137.835 72.2305C137.179 72.2305 136.648 72.0591 136.242 71.7163C135.84 71.3735 135.639 70.9165 135.639 70.3452H136.94C136.94 70.6118 137.018 70.8192 137.175 70.9673C137.336 71.1112 137.556 71.1831 137.835 71.1831C138.11 71.1831 138.326 71.1112 138.482 70.9673C138.639 70.8192 138.717 70.6118 138.717 70.3452H140.031ZM145.011 77.4673H144.274V80H142.44V73.1318H144.274V75.7153H144.928L146.426 73.1318H148.743L146.496 76.4009L148.953 80H146.509L145.011 77.4673ZM153.913 73.1318H155.748V80H153.913V75.7598L151.615 80H149.775V73.1318H151.615V77.3657L153.913 73.1318ZM164.787 73.1318H166.621V80H164.787V75.7598L162.489 80H160.648V73.1318H162.489V77.3657L164.787 73.1318ZM177.704 76.6294C177.704 77.6873 177.463 78.5358 176.98 79.1748C176.502 79.8096 175.854 80.127 175.038 80.127C174.344 80.127 173.783 79.8857 173.356 79.4033V82.6406H171.521V73.1318H173.222L173.286 73.8047C173.73 73.2715 174.31 73.0049 175.025 73.0049C175.871 73.0049 176.529 73.318 176.999 73.9443C177.469 74.5706 177.704 75.4339 177.704 76.5342V76.6294ZM175.869 76.4961C175.869 75.8571 175.755 75.3641 175.527 75.0171C175.302 74.6701 174.974 74.4966 174.543 74.4966C173.967 74.4966 173.571 74.7166 173.356 75.1567V77.9688C173.58 78.4215 173.98 78.6479 174.555 78.6479C175.431 78.6479 175.869 77.9307 175.869 76.4961ZM182.137 80.127C181.13 80.127 180.309 79.818 179.675 79.2002C179.044 78.5824 178.729 77.7593 178.729 76.731V76.5532C178.729 75.8634 178.862 75.2477 179.129 74.7061C179.395 74.1602 179.772 73.7412 180.259 73.4492C180.749 73.153 181.308 73.0049 181.934 73.0049C182.874 73.0049 183.612 73.3011 184.15 73.8936C184.691 74.486 184.962 75.326 184.962 76.4136V77.1626H180.589C180.648 77.6112 180.826 77.9709 181.122 78.2417C181.422 78.5125 181.801 78.6479 182.258 78.6479C182.965 78.6479 183.517 78.3919 183.915 77.8799L184.816 78.8892C184.541 79.2785 184.169 79.5832 183.699 79.8032C183.229 80.019 182.709 80.127 182.137 80.127ZM181.928 74.4902C181.564 74.4902 181.268 74.613 181.039 74.8584C180.815 75.1038 180.671 75.4551 180.608 75.9121H183.159V75.7661C183.151 75.3599 183.041 75.0467 182.829 74.8267C182.618 74.6024 182.317 74.4902 181.928 74.4902ZM190.323 77.8354L192.119 73.1318H194.417V80H192.582V75.7852L190.938 80H189.707L188.095 75.855V80H186.26V73.1318H188.539L190.323 77.8354ZM195.861 76.5024C195.861 75.8211 195.992 75.2139 196.254 74.6807C196.517 74.1475 196.893 73.7349 197.384 73.4429C197.879 73.1509 198.453 73.0049 199.105 73.0049C200.031 73.0049 200.787 73.2884 201.371 73.8555C201.959 74.4225 202.287 75.1927 202.355 76.166L202.367 76.6357C202.367 77.6895 202.073 78.5358 201.485 79.1748C200.897 79.8096 200.107 80.127 199.117 80.127C198.127 80.127 197.336 79.8096 196.743 79.1748C196.155 78.54 195.861 77.6768 195.861 76.585V76.5024ZM197.695 76.6357C197.695 77.2874 197.818 77.7868 198.063 78.1338C198.309 78.4766 198.66 78.6479 199.117 78.6479C199.562 78.6479 199.909 78.4787 200.158 78.1401C200.408 77.7974 200.533 77.2515 200.533 76.5024C200.533 75.8634 200.408 75.3683 200.158 75.0171C199.909 74.6659 199.557 74.4902 199.105 74.4902C198.656 74.4902 198.309 74.6659 198.063 75.0171C197.818 75.3641 197.695 75.9036 197.695 76.6357ZM209.581 80H207.74V77.3594H205.462V80H203.627V73.1318H205.462V75.8867H207.74V73.1318H209.581V80ZM216.833 74.6045H214.631V80H212.79V74.6045H210.625V73.1318H216.833V74.6045ZM221.768 80C221.684 79.835 221.622 79.6297 221.584 79.3843C221.14 79.8794 220.562 80.127 219.851 80.127C219.179 80.127 218.62 79.9323 218.176 79.543C217.736 79.1536 217.516 78.6628 217.516 78.0703C217.516 77.3424 217.784 76.7839 218.322 76.3945C218.863 76.0052 219.644 75.8084 220.664 75.8042H221.508V75.4106C221.508 75.0933 221.426 74.8394 221.261 74.6489C221.1 74.4585 220.844 74.3633 220.493 74.3633C220.184 74.3633 219.94 74.4373 219.763 74.5854C219.589 74.7336 219.502 74.9367 219.502 75.1948H217.668C217.668 74.797 217.791 74.4289 218.036 74.0903C218.281 73.7518 218.628 73.4873 219.077 73.2969C219.526 73.1022 220.029 73.0049 220.588 73.0049C221.434 73.0049 222.105 73.2186 222.6 73.646C223.099 74.0692 223.349 74.6659 223.349 75.436V78.4131C223.353 79.0648 223.444 79.5578 223.622 79.8921V80H221.768ZM220.251 78.7241C220.522 78.7241 220.772 78.6649 221 78.5464C221.229 78.4237 221.398 78.2607 221.508 78.0576V76.877H220.823C219.904 76.877 219.416 77.1943 219.356 77.8291L219.35 77.937C219.35 78.1655 219.43 78.3538 219.591 78.502C219.752 78.6501 219.972 78.7241 220.251 78.7241ZM226.754 77.1626H225.231L225.015 70.7578H226.97L226.754 77.1626ZM225.993 78.1655C226.302 78.1655 226.549 78.2565 226.735 78.4385C226.926 78.6204 227.021 78.8532 227.021 79.1367C227.021 79.416 226.926 79.6466 226.735 79.8286C226.549 80.0106 226.302 80.1016 225.993 80.1016C225.688 80.1016 225.44 80.0106 225.25 79.8286C225.064 79.6466 224.971 79.416 224.971 79.1367C224.971 78.8574 225.064 78.6268 225.25 78.4448C225.44 78.2586 225.688 78.1655 225.993 78.1655Z" fill="white"/>
<path d="M44 61.1295V0H0V75L44 61.1295Z" fill="#FF0000"/>
<path d="M135.907 45.8561L135.89 45.4534L135.873 45.0864L135.839 44.7023L135.789 44.3177L135.738 43.9332L135.688 43.548L135.62 43.1634L135.552 42.7606L135.468 42.3579L135.401 41.9545L135.299 41.5518L135.215 41.149L135.097 40.7644L134.996 40.3611L134.878 39.9947L134.742 39.5919L134.624 39.2073L134.489 38.8227L134.337 38.4563L134.186 38.1081L134.033 37.7604L133.864 37.4491L133.696 37.1008L133.527 36.7895L133.325 36.46L133.139 36.1482L132.936 35.8374L132.734 35.5437L132.514 35.2512L132.295 34.958L132.076 34.6649L131.839 34.39L131.586 34.1156L131.35 33.8588L131.097 33.6026L130.827 33.3464L130.573 33.1078L130.303 32.8698L130.016 32.6317L129.746 32.3937L129.459 32.1739L129.172 31.954L128.869 31.7523L128.582 31.5512L128.278 31.3678L127.974 31.1661L127.653 30.9832L127.349 30.8184L127.029 30.6537L126.708 30.5071L126.388 30.3605L126.067 30.214L125.729 30.0674L125.392 29.939L125.071 29.8294L124.733 29.7192L124.379 29.6277L124.041 29.5363L123.704 29.4448L123.367 29.3715L123.012 29.2982L122.674 29.2431L122.303 29.1517L121.932 29.0784L121.56 29.0051L121.189 28.9318L120.818 28.8767L120.43 28.8222L120.058 28.7853L119.687 28.7302L119.299 28.6938L118.927 28.6756L118.539 28.6569L118.168 28.6205H117.796H117.408H117.273H117.037H116.665H116.277L115.906 28.6569L115.535 28.6756L115.147 28.6938L114.775 28.7302L114.387 28.7853L114.016 28.8222L113.644 28.8767L113.273 28.9318L112.901 29.0051L112.531 29.0966L112.159 29.1698L111.788 29.2613L111.416 29.3715L111.045 29.463L110.674 29.5732L110.32 29.701L109.948 29.8112L109.593 29.9578L109.239 30.0856L108.885 30.2322L108.53 30.3787L108.176 30.5435L107.821 30.7088L107.484 30.8735L107.129 31.0383L106.792 31.2399L106.454 31.4229L106.117 31.6058L105.779 31.8075L105.458 32.0091L105.137 32.229L104.8 32.4301L104.479 32.6681L104.176 32.888L103.855 33.1265L103.602 33.3646L103.331 33.6208L103.078 33.877L102.842 34.1337L102.606 34.4087L102.37 34.6831L102.134 34.9762L101.914 35.2693L101.694 35.5437L101.492 35.8556L101.289 36.1482L101.087 36.46L100.901 36.7895L100.715 37.1008L100.546 37.4303L100.378 37.7604L100.226 38.0899L100.057 38.4199L99.922 38.7676L99.7871 39.0977L99.6523 39.4453L99.5342 39.8117L99.4157 40.16L99.2976 40.4895L99.1964 40.8559L99.1119 41.2035L99.0274 41.5881L98.9429 41.9363L98.8758 42.3028L98.8249 42.6874L98.7577 43.0538L98.7068 43.4384L98.6565 43.8229L98.6224 44.2075L98.5888 44.574L98.5547 44.9767L98.5384 45.3613V45.7465V46.1311V46.5157V46.9002L98.572 47.2848L98.6056 47.6694L98.6224 48.054L98.6732 48.4386L98.7236 48.8232L98.7913 49.2078L98.8585 49.5924L98.9262 49.9588L99.0106 50.3434L99.0951 50.7098L99.1964 51.0762L99.2976 51.4426L99.4157 51.8272L99.5342 52.1749L99.6523 52.5413L99.7871 52.9077L99.922 53.256L100.074 53.6036L100.226 53.9519L100.378 54.3001L100.546 54.6478L100.715 54.9778L100.901 55.3073L101.104 55.6368L101.289 55.9668L101.492 56.2781L101.694 56.5894L101.914 56.9008L102.116 57.2121L102.353 57.5052L102.572 57.8165H112.26V50.4536H117.273H135.519L135.603 50.0684L135.671 49.7026L135.721 49.318L135.772 48.9329L135.823 48.5488L135.857 48.1642L135.89 47.7791L135.907 47.3945L135.924 47.0099V46.6253V46.2407L135.907 45.8561V45.8561ZM189.57 29.0966L189.267 29.0051L188.963 28.9137L188.659 28.8404L188.339 28.7853L188.035 28.7302L187.714 28.712L187.393 28.6756H187.072H186.769H186.448L186.128 28.712L185.823 28.7489L185.503 28.8034L185.199 28.8585L184.929 28.9318L184.642 29.0051L184.372 29.0784L184.102 29.1698L183.849 29.2801L183.579 29.3897L183.325 29.4999L183.056 29.6277L182.819 29.7743L182.566 29.9209L182.329 30.0674L182.093 30.2322L181.857 30.3969L181.621 30.5804L181.401 30.7633L181.182 30.9468L180.979 31.1661L180.777 31.3678L180.574 31.5876L180.372 31.8075L180.186 32.0273L180.017 32.2653L179.831 32.5034L179.663 32.7419L179.68 29.3164H167.325V58H180.895V43.7679L180.912 43.3651L180.946 42.9805L181.013 42.6141L181.081 42.2659L181.182 41.9363L181.283 41.6069L181.401 41.3137L181.537 41.0388L181.671 40.7644L181.84 40.5076L182.009 40.2696L182.195 40.0679L182.397 39.8481L182.616 39.6652L182.836 39.4817L183.072 39.3169L183.325 39.1522L183.579 39.0056L183.849 38.8591L184.136 38.7494L184.44 38.6392L184.76 38.5665L185.081 38.4932L185.418 38.4381L185.773 38.4012L186.128 38.3648H190.178V29.3164L189.874 29.188L189.57 29.0966V29.0966ZM162.423 29.0966L162.119 29.0051L161.815 28.9137L161.511 28.8404L161.191 28.7853L160.887 28.7302L160.566 28.712L160.245 28.6756H159.925H159.621H159.3L158.98 28.712L158.676 28.7489L158.355 28.8034L158.051 28.8585L157.781 28.9318L157.494 29.0051L157.224 29.0784L156.954 29.1698L156.701 29.2801L156.431 29.3897L156.178 29.4999L155.908 29.6277L155.672 29.7743L155.418 29.9209L155.182 30.0674L154.945 30.2322L154.709 30.3969L154.473 30.5804L154.253 30.7633L154.034 30.9468L153.832 31.1661L153.629 31.3678L153.427 31.5876L153.224 31.8075L153.038 32.0273L152.869 32.2653L152.684 32.5034L152.515 32.7419L152.532 29.3164H140.177V58H153.747V43.7679L153.764 43.3651L153.798 42.9805L153.865 42.6141L153.933 42.2659L154.034 41.9363L154.135 41.6069L154.253 41.3137L154.389 41.0388L154.524 40.7644L154.693 40.5076L154.861 40.2696L155.047 40.0679L155.249 39.8481L155.469 39.6652L155.688 39.4817L155.924 39.3169L156.178 39.1522L156.431 39.0056L156.701 38.8591L156.988 38.7494L157.292 38.6392L157.612 38.5665L157.933 38.4932L158.271 38.4381L158.625 38.4012L158.98 38.3648H163.03V29.3164L162.726 29.188L162.423 29.0966V29.0966ZM88.867 16H75.4143V29.3164H70.0133V38.3648H75.4143V50.49V50.9115V51.3506L75.4316 51.754L75.4652 52.1567L75.4993 52.5413L75.5497 52.9077L75.6341 53.256L75.7018 53.6036L75.7858 53.9337L75.887 54.245L76.0056 54.5563L76.1237 54.8494L76.2753 55.1238L76.4107 55.3988L76.5791 55.6368L76.7648 55.8748L76.9505 56.0947L77.1363 56.3145L77.3388 56.5344L77.5413 56.736L77.7606 56.919L78.0136 57.0837L78.267 57.2303L78.554 57.3405L78.8578 57.4501L79.1615 57.5603L79.4653 57.6336L79.8032 57.7069L80.1574 57.7432L80.5121 57.7983L80.8662 57.8347L81.2377 57.8534L81.626 57.8716H88.867V38.3648H96.5971V29.3164H88.867V16V16ZM227.915 37.8155L227.848 37.3758L227.763 36.9725L227.662 36.5879L227.561 36.2033L227.443 35.8374L227.308 35.4705L227.156 35.1228L227.004 34.7933L226.835 34.4814L226.666 34.1701L226.48 33.877L226.278 33.6026L226.059 33.3464L225.823 33.0896L225.586 32.8516L225.35 32.6136L225.096 32.375L224.843 32.1557L224.573 31.954L224.303 31.7523L224.017 31.5512L223.73 31.3678L223.443 31.1848L223.139 31.0201L222.835 30.8553L222.514 30.7088L222.193 30.5435L221.873 30.3969L221.552 30.2509L221.198 30.1225L220.86 30.0123L220.505 29.8845L220.151 29.7743L219.797 29.6646L219.426 29.5544L219.054 29.463L218.683 29.3715L218.294 29.2801L217.923 29.2068L217.518 29.1335L217.13 29.0602L216.742 28.9869L216.337 28.9137L215.931 28.8585L215.509 28.8034L215.104 28.7671L214.683 28.712L214.261 28.6938L213.822 28.6569L213.433 28.6387L213.028 28.6205L212.606 28.6023H212.151H211.712L211.24 28.5836L210.801 28.6023H210.345L209.906 28.6205L209.467 28.6569L209.011 28.6938L208.539 28.7302L208.1 28.7671L207.695 28.8034L207.29 28.8585L206.885 28.9137L206.48 28.9869L206.092 29.0602L205.703 29.1335L205.315 29.2068L204.927 29.2801L204.555 29.3715L204.184 29.463L203.813 29.5732L203.458 29.6828L203.104 29.7925L202.749 29.9209L202.412 30.0492L202.057 30.1776L201.737 30.3055L201.399 30.452L201.079 30.5986L200.758 30.7633L200.437 30.9099L200.133 31.0746L199.829 31.2399L199.542 31.4229L199.255 31.6058L198.969 31.8075L198.699 31.9909L198.412 32.1921L198.142 32.4119L197.889 32.6136L197.635 32.8516L197.382 33.0896L197.146 33.3095L196.91 33.5475L196.673 33.7855L196.437 34.0423L196.218 34.2985L195.998 34.5547L195.796 34.8296L195.593 35.1228L195.391 35.3977L195.205 35.6903L195.019 36.0022L194.834 36.2947L194.681 36.6248L194.513 36.9543L194.378 37.2843L194.243 37.6502L194.108 37.9984L193.99 38.383L193.871 38.7494L193.77 39.134L193.686 39.5368L193.618 39.9583L193.567 40.2696L193.551 40.4895L193.517 41.2223H206.311L206.328 40.5991L206.362 40.398L206.446 40.123L206.564 39.7566L206.716 39.4271L206.918 39.134L207.138 38.8772L207.374 38.658L207.661 38.4563L207.965 38.2734L208.286 38.145L208.623 38.0166L208.995 37.907L209.383 37.8155L209.788 37.7604L210.226 37.7422L210.666 37.7235L211.104 37.7422L211.526 37.7786L211.931 37.8337L212.303 37.9251L212.674 38.0348L213.011 38.145L213.332 38.3097L213.636 38.4745L213.906 38.6943L214.143 38.9323L214.311 39.2436L214.447 39.5919L214.531 39.9947L214.548 40.4162L214.514 40.8377L214.412 41.2035L214.227 41.5154L214.007 41.7534L213.72 41.9363L213.417 42.1198L213.079 42.2477L212.741 42.3761L212.37 42.4675L211.999 42.559L211.611 42.651L211.222 42.7243L210.834 42.797L209.231 43.072L207.627 43.31L205.99 43.5298L204.42 43.8229L204.015 43.8781L203.61 43.9513L203.222 44.0246L202.834 44.0979L202.446 44.1712L202.057 44.2627L201.686 44.3541L201.315 44.4456L200.943 44.5376L200.589 44.6472L200.218 44.7569L199.863 44.8671L199.509 44.9767L199.154 45.1051L198.8 45.2153L198.462 45.3431L198.125 45.4715L197.787 45.6181L197.466 45.7465L197.146 45.9112L196.825 46.0578L196.505 46.2225L196.201 46.3691L195.897 46.552L195.61 46.7355L195.323 46.9366L195.053 47.1201L194.783 47.3399L194.53 47.5598L194.294 47.7972L194.057 48.054L193.838 48.3108L193.635 48.5852L193.416 48.8601L193.23 49.1345L193.044 49.4464L192.892 49.7759L192.741 50.1054L192.606 50.4718L192.487 50.8382L192.386 51.2228L192.302 51.6256L192.217 52.0471L192.15 52.468L192.099 52.8895L192.065 53.3292V53.732L192.099 54.1348L192.15 54.5381L192.234 54.9227L192.336 55.3073L192.47 55.6555L192.623 55.985L192.808 56.2963L192.994 56.5894L193.213 56.8275L193.466 57.0837L193.703 57.3035L193.972 57.5234L194.26 57.7069L194.581 57.8534L194.935 57.9449L195.323 57.9812L195.728 58H208.286L207.644 57.5603L207.543 57.4137L207.374 57.2121L207.172 56.9559L206.969 56.6809L206.8 56.3696L206.649 56.0214L206.53 55.6555L206.463 55.234L206.446 54.8125L206.513 54.4097L206.615 54.0251L206.749 53.6956L206.918 53.3838L207.138 53.1094L207.358 52.8714L207.61 52.6328L207.881 52.4317L208.184 52.2482L208.488 52.1016L208.826 51.9551L209.146 51.8272L210.547 51.3142L211.931 50.8382L212.269 50.7098L212.623 50.5814L212.978 50.4718L213.315 50.3434L213.653 50.215L213.906 50.1236L214.092 50.0684L214.278 50.0139L214.683 49.7759V58H228V39.2073V38.7312L227.966 38.2546L227.915 37.8155V37.8155ZM64.1726 16.0761H52.6118V58H64.1726V16.0761ZM117.273 43.1089H111.94L111.923 42.5777L111.99 42.0829L112.075 41.6069L112.209 41.149L112.362 40.7275L112.547 40.3429L112.767 39.9765L113.003 39.647L113.273 39.3169L113.56 39.0244L113.881 38.7676L114.201 38.5296L114.539 38.3279L114.893 38.145L115.265 37.9802L115.636 37.8518L116.024 37.7422L116.429 37.6689L116.818 37.632L117.223 37.5957H117.273L117.61 37.6138L118.016 37.6502L118.404 37.7053L118.792 37.7967L119.18 37.9251L119.552 38.0717L119.906 38.2364L120.244 38.4563L120.581 38.6761L120.885 38.9323L121.172 39.2255L121.442 39.5555L121.695 39.9032L121.915 40.2696L122.101 40.6542L122.269 41.0939L122.387 41.5518L122.489 42.0466L122.556 42.559L122.607 43.1089H117.273V43.1089Z" fill="white"/>
<path d="M28.3066 34.0532C28.3066 34.0532 26.5312 34.0532 23.1017 34.0532C19.6739 34.0532 14.6524 37.563 14.6524 45.8363C14.6524 52.6076 18.5719 55.1145 22.4903 55.1145C24.6938 55.1145 28.3066 51.228 28.3066 46.5886V34.0532ZM40 57.6215H28.3066V54.4883C26.3474 56.3691 22.1211 59 17.4699 59C12.816 59 4 55.6163 4 45.7123C4 35.8089 15.2648 30.9195 21.7555 30.9195C28.2462 30.9195 28.3066 30.9195 28.3066 30.9195C28.3066 27.2819 28.3066 26.4056 28.3066 23.8976C28.3066 21.3906 26.5312 19.1353 23.3471 19.1353C20.1624 19.1353 16.2444 21.2656 16.2444 26.7824H6.93939C6.93939 23.1458 9.38765 16 23.4694 16C37.5512 16 39.0204 22.5185 39.0204 25.4033C39.0204 28.2864 39.0204 52.232 39.0204 53.611C39.0204 55.9919 40 57.6215 40 57.6215Z" fill="#FEFEFE"/>
</svg>
