<svg width="10" height="10" viewBox="0 0 10 10" fill="none" xmlns="http://www.w3.org/2000/svg">
<path d="M9.4271 4.7136C9.4271 7.3168 7.31681 9.42709 4.71351 9.42709C2.11031 9.42709 0 7.3168 0 4.7136C0 2.1104 2.11031 0 4.71351 0C7.31681 0 9.4271 2.1104 9.4271 4.7136Z" fill="#415F9C"/>
<path d="M4.61741 4.98097C4.61421 4.95837 4.61111 4.93577 4.60791 4.91327C4.61711 4.77537 4.59691 4.63338 4.66751 4.50458C4.68981 4.52378 4.71201 4.54298 4.73431 4.56208C4.88181 4.68408 4.75791 4.84298 4.79121 4.98038C4.77231 4.98138 4.75341 4.98208 4.73431 4.98228C4.69531 4.98188 4.65641 4.98137 4.61741 4.98097Z" fill="#A4B3CE"/>
<path d="M4.81851 4.6345C4.78761 4.7114 4.7567 4.78831 4.7259 4.86521C4.6844 4.78411 4.4601 4.7033 4.7255 4.6217C4.7565 4.6259 4.78761 4.6303 4.81851 4.6345Z" fill="#E7EBF2"/>
<path d="M4.6235 4.50317C4.6625 4.50367 4.7015 4.50418 4.7404 4.50458C4.7596 4.56448 4.7786 4.62437 4.7978 4.68417C4.7341 4.72627 4.795 4.76397 4.802 4.80357C4.7813 4.82427 4.76069 4.84507 4.74009 4.86577C4.69049 4.88997 4.681 4.93467 4.6802 4.98367C4.5611 4.83527 4.6444 4.66317 4.6235 4.50317Z" fill="#AAB6D1"/>
<path fill-rule="evenodd" clip-rule="evenodd" d="M3.9324 4.76701V7.65392C3.9324 7.69542 3.9661 7.72911 4.0076 7.72911H5.0797C5.1212 7.72911 5.15481 7.69542 5.15481 7.65392V4.72001H5.9321C5.9711 4.72001 6.0037 4.69001 6.007 4.65111L6.0817 3.76711C6.0855 3.72321 6.05091 3.68551 6.00691 3.68551H5.15481V3.05841C5.15481 2.91141 5.27401 2.79221 5.42101 2.79221H6.02C6.0616 2.79221 6.09521 2.75851 6.09521 2.71701V1.83301C6.09521 1.79151 6.0616 1.75781 6.02 1.75781H5.0079C4.414 1.75781 3.9324 2.23931 3.9324 2.83321V3.68551H3.3964C3.3548 3.68551 3.32111 3.71921 3.32111 3.76071V4.64471C3.32111 4.68631 3.3548 4.72001 3.3964 4.72001H3.9324V4.76701Z" fill="#FEFEFE"/>
</svg>
