<svg width="30" height="30" viewBox="0 0 30 30" fill="none" xmlns="http://www.w3.org/2000/svg">
<path fill-rule="evenodd" clip-rule="evenodd" d="M30 15C30 23.2846 23.2842 30 15.0002 30C6.7158 30 0 23.2846 0 15C0 6.71571 6.7158 0 15.0002 0C23.2842 0 30 6.71571 30 15Z" fill="url(#paint0_linear)"/>
<path d="M20.3103 8.61041C19.6665 8.61041 19.1449 9.13231 19.1449 9.77547C19.1449 10.4193 19.6665 10.9408 20.3103 10.9408C20.9534 10.9408 21.4754 10.4193 21.4754 9.77547C21.4754 9.13231 20.9534 8.61041 20.3103 8.61041Z" fill="#FEFEFE"/>
<path d="M15.1293 18.1355C13.4004 18.1355 11.9937 16.7289 11.9937 14.9999C11.9937 13.2709 13.4004 11.8643 15.1293 11.8643C16.8587 11.8643 18.265 13.2709 18.265 14.9999C18.265 16.7289 16.8587 18.1355 15.1293 18.1355ZM15.1293 10.1045C12.4301 10.1045 10.2345 12.3006 10.2345 14.9999C10.2345 17.6992 12.4301 19.8953 15.1293 19.8953C17.8283 19.8953 20.0245 17.6992 20.0245 14.9999C20.0245 12.3006 17.8283 10.1045 15.1293 10.1045Z" fill="#FEFEFE"/>
<path d="M11.0798 6.93111C8.81839 6.93111 6.9793 8.77051 6.9793 11.0319V18.968C6.9793 21.2294 8.81839 23.0688 11.0798 23.0688H19.0154C21.2765 23.0688 23.1165 21.2294 23.1165 18.968V11.0319C23.1165 8.77051 21.2765 6.93111 19.0154 6.93111H11.0798ZM19.0154 24.9387H11.0798C7.78762 24.9387 5.10931 22.2605 5.10931 18.968V11.0319C5.10931 7.73942 7.78762 5.06116 11.0798 5.06116H19.0154C22.3079 5.06116 24.9862 7.73942 24.9862 11.0319V18.968C24.9862 22.2605 22.3079 24.9387 19.0154 24.9387Z" fill="#FEFEFE"/>
<defs>
<linearGradient id="paint0_linear" x1="2.20921" y1="27.7911" x2="34.6256" y2="-4.62621" gradientUnits="userSpaceOnUse">
<stop stop-color="#F9E089"/>
<stop offset="0.211765" stop-color="#FABB4B"/>
<stop offset="0.380392" stop-color="#EA5577"/>
<stop offset="0.521569" stop-color="#D24290"/>
<stop offset="0.741176" stop-color="#714D98"/>
<stop offset="1" stop-color="#5058A2"/>
</linearGradient>
</defs>
</svg>
