<svg width="435" height="435" viewBox="0 0 435 435" fill="none" xmlns="http://www.w3.org/2000/svg">
<path d="M365.348 271.763C349.648 256.263 330.048 256.263 314.448 271.763C302.548 283.563 290.648 295.363 278.948 307.363C275.748 310.663 273.048 311.363 269.148 309.163C261.448 304.963 253.248 301.563 245.848 296.963C211.348 275.263 182.448 247.363 156.848 215.963C144.148 200.363 132.848 183.663 124.948 164.863C123.348 161.063 123.648 158.563 126.748 155.463C138.648 143.963 150.248 132.163 161.948 120.363C178.248 103.963 178.248 84.7625 161.848 68.2625C152.548 58.8625 143.248 49.6625 133.948 40.2625C124.348 30.6625 114.848 20.9625 105.148 11.4625C89.4483 -3.83747 69.8483 -3.83747 54.2483 11.5625C42.2483 23.3625 30.7483 35.4625 18.5483 47.0625C7.24826 57.7625 1.54826 70.8625 0.348262 86.1625C-1.55174 111.063 4.54826 134.563 13.1483 157.463C30.7483 204.863 57.5483 246.963 90.0483 285.563C133.948 337.763 186.348 379.063 247.648 408.863C275.248 422.263 303.848 432.563 334.948 434.263C356.348 435.463 374.948 430.063 389.848 413.363C400.048 401.963 411.548 391.563 422.348 380.663C438.348 364.463 438.448 344.863 422.548 328.863C403.548 309.763 384.448 290.763 365.348 271.763Z" fill="white"/>
</svg>
