<svg width="10" height="10" viewBox="0 0 10 10" fill="none" xmlns="http://www.w3.org/2000/svg">
<path d="M9.8297 4.71352C9.8297 7.31682 7.71941 9.42712 5.11611 9.42712C2.51301 9.42712 0.40271 7.31682 0.40271 4.71352C0.40271 2.11032 2.51301 0.00012207 5.11611 0.00012207C7.71941 0.00012207 9.8297 2.11032 9.8297 4.71352Z" fill="#E52D2C"/>
<path d="M6.0054 4.81402L4.6822 5.53972C4.6246 5.57082 4.5729 5.52912 4.5729 5.46382V3.97422C4.5729 3.90792 4.6263 3.86632 4.6839 3.89912L6.01611 4.66302C6.07501 4.69662 6.065 4.78172 6.0054 4.81402ZM8.09861 3.95822C8.09861 3.25172 7.52591 2.67902 6.81951 2.67902H3.5017C2.7953 2.67902 2.2225 3.25172 2.2225 3.95822V5.51302C2.2225 6.21962 2.7953 6.79232 3.5017 6.79232H6.81951C7.52591 6.79232 8.09861 6.21962 8.09861 5.51302V3.95822Z" fill="#FEFEFE"/>
</svg>
